<?xml version="1.0" standalone="no"?>
<!DOCTYPE svg PUBLIC "-//W3C//DTD SVG 20010904//EN"
 "http://www.w3.org/TR/2001/REC-SVG-20010904/DTD/svg10.dtd">
<svg version="1.0" xmlns="http://www.w3.org/2000/svg"
 width="76.000000pt" height="76.000000pt" viewBox="0 0 76.000000 76.000000"
 preserveAspectRatio="xMidYMid meet">
<metadata>
Created by potrace 1.11, written by Peter Selinger 2001-2013
</metadata>
<g transform="translate(0.000000,76.000000) scale(0.100000,-0.100000)"
fill="#000000" stroke="none">
<path d="M0 721 c0 -13 59 -57 88 -66 13 -4 78 -8 145 -10 67 -2 138 -8 157
-14 51 -16 105 -13 130 7 18 14 20 22 11 43 -5 15 -22 31 -39 37 -39 14 -161
7 -245 -13 -87 -20 -162 -18 -205 6 -38 22 -42 23 -42 10z"/>
<path d="M637 664 c20 -42 20 -76 -2 -94 -20 -17 -91 -19 -164 -4 -90 18 -103
21 -147 33 -63 18 -106 13 -139 -13 l-30 -24 0 -124 c0 -67 3 -131 7 -141 7
-16 10 -17 37 -2 37 19 101 19 145 1 122 -51 40 -192 -98 -169 l-39 6 24 -32
c31 -43 88 -71 141 -71 93 0 220 93 299 218 119 188 115 361 -10 431 l-42 23
18 -38z"/>
<path d="M172 244 c-12 -8 -22 -21 -22 -29 0 -41 74 -60 118 -29 19 13 20 18
11 37 -7 12 -17 25 -23 29 -19 13 -60 9 -84 -8z"/>
</g>
</svg>
